<svg width="372" height="443" viewBox="0 0 372 443" fill="none" xmlns="http://www.w3.org/2000/svg">
<g id="image">
<g id="rest">
<path id="Vector" d="M372 105.273H369.446V38.5929C369.446 28.3574 365.181 18.5412 357.588 11.3036C349.995 4.06605 339.697 2.33308e-05 328.959 1.52589e-05H180.753C175.436 2.46916e-06 170.171 0.998222 165.259 2.93768C160.347 4.87714 155.883 7.71986 152.124 11.3035C148.364 14.8872 145.382 19.1416 143.347 23.8239C141.313 28.5062 140.265 33.5247 140.265 38.5928V404.407C140.265 409.475 141.313 414.494 143.347 419.176C145.382 423.858 148.364 428.113 152.124 431.696C155.883 435.28 160.347 438.123 165.259 440.062C170.171 442.002 175.436 443 180.753 443H328.959C339.697 443 349.995 438.934 357.588 431.696C365.181 424.459 369.446 414.643 369.446 404.407V152.738H372V105.273Z" fill="#3F3D56"/>
<path id="Vector_2" d="M330.593 10.0406H311.247C312.137 12.1197 312.476 14.3754 312.236 16.6091C311.995 18.8428 311.182 20.9859 309.868 22.8495C308.555 24.7132 306.78 26.2402 304.701 27.2961C302.622 28.352 300.303 28.9044 297.947 28.9045H213.041C210.686 28.9044 208.366 28.352 206.287 27.2961C204.209 26.2402 202.434 24.7132 201.12 22.8495C199.806 20.9858 198.993 18.8428 198.753 16.6091C198.512 14.3754 198.852 12.1196 199.742 10.0405H181.673C173.654 10.0405 165.963 13.077 160.293 18.4819C154.623 23.8868 151.437 31.2175 151.437 38.8612V404.139C151.437 407.924 152.219 411.671 153.739 415.168C155.258 418.665 157.485 421.842 160.293 424.518C163.1 427.194 166.434 429.317 170.102 430.766C173.77 432.214 177.702 432.959 181.672 432.959H330.593C334.563 432.959 338.495 432.214 342.163 430.766C345.832 429.317 349.165 427.194 351.972 424.518C354.78 421.842 357.007 418.665 358.527 415.168C360.046 411.671 360.828 407.924 360.828 404.139V38.8612C360.828 35.0764 360.046 31.3287 358.527 27.832C357.007 24.3353 354.78 21.1582 351.972 18.4819C349.165 15.8057 345.832 13.6827 342.163 12.2344C338.495 10.786 334.563 10.0405 330.593 10.0406Z" fill="white"/>
</g>
<g id="feeds">
<path id="Vector_3" d="M255.875 78.0645H169.28V219.075H255.875V78.0645Z" fill="#E6E6E6"/>
<path id="Vector_4" d="M342.725 230.12H270.752V389.763H342.725V230.12Z" fill="#E6E6E6"/>
<path id="Vector_5" d="M342.985 78.0645H270.823V116.879H342.985V78.0645Z" fill="#E6E6E6"/>
<path id="Vector_6" d="M342.985 127.688H270.823V169.451H342.985V127.688Z" fill="#E6E6E6"/>
<path id="Vector_7" d="M342.985 180.26H270.823V219.075H342.985V180.26Z" fill="#E6E6E6"/>
<path id="Vector_8" d="M255.982 230.12H169.388V291.572H255.982V230.12Z" fill="#E78615"/>
<path id="Vector_9" d="M255.982 303.484H169.388V389.892H255.982V303.484Z" fill="#E6E6E6"/>
</g>
<path id="hand" d="M153.341 235.745L165.394 241.579C169.697 243.661 173.848 243.305 175.438 238.963C175.817 237.93 175.956 236.831 175.848 235.741C175.739 234.652 175.385 233.597 174.809 232.65C174.234 231.703 173.45 230.886 172.512 230.255C171.575 229.623 170.505 229.192 169.376 228.991L157.921 226.953L108.859 211.437L79.139 191.349L68.2443 207.894L102.585 225.558L153.341 235.745Z" fill="#FFB8B8"/>
<g id="character">
<path id="Vector_10" d="M97.076 429.4L106.298 427.935L105.273 411.331H95.5389L97.076 429.4Z" fill="#FFB8B8"/>
<path id="Vector_11" d="M7.57167 413.183L16.4965 415.837L23.4328 400.575L14.7429 396.393L7.57167 413.183Z" fill="#FFB8B8"/>
<path id="Vector_12" d="M49.992 180.508C67.551 173.389 89.4209 177.9 110.779 181.03C110.978 177.239 113.387 172.625 110.864 169.981C107.798 166.767 108.08 163.391 109.925 159.996C114.643 151.312 107.883 142.073 101.059 134.391C99.5203 132.663 97.5762 131.306 95.3842 130.429C93.1922 129.552 90.8141 129.18 88.4431 129.343L75.8007 130.204C72.7244 130.414 69.7885 131.514 67.3859 133.357C64.9833 135.2 63.2287 137.699 62.3567 140.519C59.338 144.433 57.7223 148.335 58.7395 152.218C54.218 155.163 53.4583 158.718 55.4901 162.727C57.213 165.25 57.1947 167.707 55.4117 170.095C53.0702 173.141 51.2768 176.536 50.105 180.143L49.992 180.508Z" fill="#2F2E41"/>
<path id="Vector_13" d="M12.5419 398.634L23.8131 403.029L77.6074 335.636L94.5142 414.75L105.785 412.796C113.016 344.59 118.911 275.02 111.677 242.116L69.9225 240.407L50.9664 298.033L41.7446 337.101L12.5419 398.634Z" fill="#2F2E41"/>
<path id="Vector_14" d="M97.5832 442.829C99.2694 443.173 101.027 442.995 102.599 442.321L108.078 439.971C112.671 439.746 115.799 440.618 118.356 437.437C119.078 436.527 119.531 435.45 119.669 434.318C119.806 433.185 119.623 432.038 119.139 430.996C118.659 429.95 117.895 429.044 116.927 428.372C115.958 427.7 114.819 427.287 113.627 427.173L106.103 422.653L105.708 426.042C102.269 427.899 98.186 427.096 93.8596 425.289L91.498 433.168C91.1935 434.183 91.1112 435.248 91.2562 436.296C91.4012 437.343 91.7705 438.351 92.341 439.257C92.9116 440.163 93.6713 440.947 94.573 441.562C95.4748 442.176 96.4994 442.607 97.5832 442.829Z" fill="#2F2E41"/>
<path id="Vector_15" d="M3.92018 426.667C5.39763 427.515 7.12053 427.89 8.83766 427.739L14.8195 427.212C19.2407 428.421 21.9018 430.214 25.4045 427.997C26.3968 427.36 27.1921 426.482 27.7081 425.453C28.2241 424.425 28.4419 423.283 28.3389 422.147C28.2411 421.009 27.8274 419.917 27.1401 418.981C26.4529 418.046 25.5169 417.302 24.4282 416.826L18.8513 410.222L17.3235 413.304C13.4382 413.996 9.84982 411.974 6.37375 408.925L1.45602 415.646C0.82192 416.512 0.381379 417.494 0.161686 418.529C-0.0580066 419.565 -0.0521679 420.633 0.178875 421.666C0.409918 422.699 0.861225 423.677 1.5048 424.537C2.14837 425.397 2.9705 426.122 3.92018 426.667Z" fill="#2F2E41"/>
<path id="Vector_16" d="M85.2923 171.061C95.4785 171.061 103.736 163.19 103.736 153.48C103.736 143.771 95.4785 135.899 85.2923 135.899C75.1061 135.899 66.8486 143.771 66.8486 153.48C66.8486 163.19 75.1061 171.061 85.2923 171.061Z" fill="#FFB8B8"/>
<path id="Vector_17" d="M62.7496 190.595L86.8293 185.711L89.9034 166.666L72.9963 163.247L62.7496 190.595Z" fill="#FFB8B8"/>
<path id="Vector_18" d="M69.4102 242.849H112.446L102.745 219.634C103.45 211.647 99.8986 205.771 94.8153 200.657L88.3663 185.223C77.9463 178.686 70.0906 179.174 61.7253 187.665C51.807 201.051 58.6724 221.173 69.4102 242.849Z" fill="#E78615"/>
<path id="Vector_19" d="M88.8786 292.173L90.1025 305.006C90.5393 309.586 93.0627 312.749 97.7664 311.724C98.8857 311.48 99.9365 311.008 100.847 310.342C101.757 309.675 102.506 308.828 103.041 307.86C103.577 306.892 103.886 305.825 103.949 304.732C104.011 303.639 103.825 302.546 103.404 301.528L99.1251 291.196L86.8293 243.337L88.8786 208.664H68.3855L70.9472 245.779L88.8786 292.173Z" fill="#FFB8B8"/>
<path id="Vector_20" d="M56.5636 176.795C58.5467 159.668 63.6278 145.084 72.4449 133.567L73.765 133.525V133.213L78.051 133.387L89.9692 133.005C89.6901 133.282 89.424 133.56 89.1543 133.838L97.8443 134.19L106.042 150.306C98.1611 148.131 89.867 147.682 81.7789 148.993C80.7727 149.137 79.8241 149.532 79.0282 150.136C78.2323 150.74 77.6172 151.534 77.2446 152.436C77.1021 152.719 77.0294 153.03 77.0321 153.343C77.0347 153.657 77.1126 153.966 77.2597 154.247C80.7047 159.974 80.533 166.265 77.0318 172.869C76.2675 174.311 77.7351 176.046 78.195 177.637L56.5636 176.795Z" fill="#2F2E41"/>
<path id="Vector_21" d="M66.8485 209.641H90.4156L88.7635 194.986C88.6549 192.452 87.5562 190.048 85.6831 188.246C83.81 186.444 81.2979 185.375 78.64 185.248C77.2316 185.181 75.8232 185.381 74.4963 185.836C73.1694 186.291 71.9504 186.992 70.9098 187.9C69.8692 188.807 69.0277 189.902 68.434 191.121C67.8402 192.34 67.5061 193.66 67.4508 195.003L66.8485 209.641Z" fill="#E78615"/>
</g>
</g>
</svg>
