<svg width="64" height="64" viewBox="0 0 64 64" fill="none" xmlns="http://www.w3.org/2000/svg">
<g id="loading">
<path id="circle3" d="M40 32C40 30.4177 39.5308 28.871 38.6518 27.5554C37.7727 26.2398 36.5233 25.2145 35.0615 24.609C33.5997 24.0035 31.9911 23.845 30.4393 24.1537C28.8874 24.4624 27.462 25.2243 26.3431 26.3431C25.2243 27.462 24.4624 28.8874 24.1537 30.4393C23.845 31.9911 24.0035 33.5997 24.609 35.0615C25.2145 36.5233 26.2398 37.7727 27.5554 38.6518C28.871 39.5308 30.4177 40 32 40L32 38.8636C30.6425 38.8636 29.3155 38.4611 28.1868 37.7069C27.0581 36.9527 26.1783 35.8808 25.6588 34.6266C25.1393 33.3724 25.0034 31.9924 25.2683 30.661C25.5331 29.3296 26.1868 28.1066 27.1467 27.1467C28.1066 26.1868 29.3296 25.5331 30.661 25.2683C31.9924 25.0034 33.3724 25.1393 34.6266 25.6588C35.8808 26.1783 36.9527 27.0581 37.7069 28.1868C38.4611 29.3155 38.8636 30.6425 38.8636 32H40Z" fill="#2B19F2"/>
<path id="circle2" d="M16.1498 32.1498C16.1498 35.3143 17.0881 38.4077 18.8463 41.0389C20.6044 43.6701 23.1032 45.7209 26.0268 46.9319C28.9504 48.1429 32.1675 48.4597 35.2712 47.8423C38.3749 47.225 41.2258 45.7011 43.4635 43.4635C45.7011 41.2258 47.225 38.3749 47.8423 35.2712C48.4597 32.1675 48.1428 28.9505 46.9318 26.0268C45.7208 23.1032 43.6701 20.6044 41.0389 18.8463C38.4077 17.0882 35.3143 16.1498 32.1498 16.1498L32.1498 18.4225C34.8648 18.4225 37.5188 19.2276 39.7762 20.736C42.0337 22.2444 43.7931 24.3883 44.8321 26.8966C45.8711 29.4049 46.1429 32.165 45.6133 34.8278C45.0836 37.4907 43.7762 39.9366 41.8564 41.8564C39.9366 43.7762 37.4906 45.0836 34.8278 45.6133C32.165 46.1429 29.4049 45.8711 26.8966 44.8321C24.3882 43.7931 22.2443 42.0337 20.736 39.7762C19.2276 37.5188 18.4225 34.8648 18.4225 32.1498H16.1498Z" fill="#1956F2"/>
<path id="circle1" d="M64 32C64 25.671 62.1232 19.4841 58.607 14.2218C55.0908 8.95938 50.0931 4.85786 44.2459 2.43585C38.3986 0.0138507 31.9645 -0.619856 25.7571 0.614871C19.5497 1.8496 13.8479 4.8973 9.37258 9.37258C4.8973 13.8479 1.8496 19.5497 0.614871 25.7571C-0.619856 31.9645 0.0138508 38.3986 2.43586 44.2459C4.85786 50.0931 8.95938 55.0908 14.2218 58.607C19.4841 62.1232 25.671 64 32 64L32 59.4545C26.57 59.4545 21.262 57.8443 16.7471 54.8276C12.2322 51.8109 8.71331 47.523 6.63534 42.5064C4.55737 37.4897 4.01368 31.9695 5.07302 26.6439C6.13236 21.3182 8.74715 16.4263 12.5867 12.5867C16.4263 8.74715 21.3182 6.13236 26.6439 5.07302C31.9695 4.01368 37.4897 4.55737 42.5064 6.63534C47.523 8.71331 51.8109 12.2322 54.8276 16.7471C57.8443 21.262 59.4545 26.57 59.4545 32H64Z" fill="#1997F2"/>
</g>
</svg>
